IKResults
version=1
nRows=5
nColumns=63
inDegrees=yes

Units are S.I. units (second, meters, Newtons, ...)
If the header above contains a line with 'inDegrees', this indicates whether rotational values are in degrees (yes) or radians (no).

endheader
time	pelvis_tilt	pelvis_list	pelvis_rotation	pelvis_tx	pelvis_ty	pelvis_tz	hip_flexion_r	hip_adduction_r	hip_rotation_r	knee_angle_r	knee_angle_r_beta	ankle_angle_r	subtalar_angle_r	mtp_angle_r	hip_flexion_l	hip_adduction_l	hip_rotation_l	knee_angle_l	knee_angle_l_beta	ankle_angle_l	subtalar_angle_l	mtp_angle_l	L5_S1_Flex_Ext	L5_S1_Lat_Bending	L5_S1_axial_rotation	L4_L5_Flex_Ext	L4_L5_Lat_Bending	L4_L5_axial_rotation	L3_L4_Flex_Ext	L3_L4_Lat_Bending	L3_L4_axial_rotation	L2_L3_Flex_Ext	L2_L3_Lat_Bending	L2_L3_axial_rotation	L1_L2_Flex_Ext	L1_L2_Lat_Bending	L1_L2_axial_rotation	L1_T12_Flex_Ext	L1_T12_Lat_Bending	L1_T12_axial_rotation	Abs_r3	Abs_r2	Abs_r1	Abs_t1	Abs_t2	neck_flexion	neck_bending	neck_rotation	arm_flex_r	arm_add_r	arm_rot_r	elbow_flex_r	pro_sup_r	wrist_flex_r	wrist_dev_r	arm_flex_l	arm_add_l	arm_rot_l	elbow_flex_l	pro_sup_l	wrist_flex_l	wrist_dev_l
      0.03333333	     86.34942643	      3.48929877	     -0.53373627	     -0.82649842	      0.27433368	     -0.26735353	      8.71202910	    -33.80202349	    -39.67481523	     37.67787587	      0.65760299	    -35.80760618	    -19.81178005	      0.00000000	     11.39237648	    -30.78967636	    -39.22952956	     46.47349176	      0.81111545	    -37.93732896	    -19.48965602	      0.00000000	     -1.21531286	     -0.53269098	      0.49840172	     -2.25695751	     -0.70847900	      0.52955183	     -1.99663750	     -1.29518485	      0.52955183	     -1.38898107	     -1.29518485	      0.43610151	     -1.12853952	     -1.08626345	      0.40495140	     -0.69442977	     -0.82513833	      0.37380129	     -8.68085823	     -6.02590692	      2.77196087	      0.00000000	      0.00000000	    -12.66743126	      8.80169466	     -0.87606401	    -30.78368595	    -43.10375971	    -39.28001021	     31.57842446	     89.99559364	      0.00000000	      0.00000000	    -30.03644008	    -44.72642872	    -33.59925040	     29.57741288	     89.99559364	      0.00000000	      0.00000000
      0.06666667	     86.34913680	      3.48910532	     -0.51979101	     -0.82647725	      0.27430502	     -0.26734399	      8.70604239	    -33.79771964	    -39.67603650	     37.68475605	      0.65772307	    -35.80729209	    -19.81133143	      0.00000000	     11.40063770	    -30.78965381	    -39.22314545	     46.46831386	      0.81102507	    -37.93525988	    -19.49086498	      0.00000000	     -1.21734362	     -0.53226244	      0.49763259	     -2.26072884	     -0.70790905	      0.52873463	     -1.99997384	     -1.29414291	      0.52873463	     -1.39130203	     -1.29414291	      0.43542852	     -1.13042529	     -1.08538958	      0.40432648	     -0.69559015	     -0.82447453	      0.37322445	     -8.69536376	     -6.02105922	      2.76768320	      0.00000000	      0.00000000	    -12.66534499	      8.79811220	     -0.87466228	    -30.79655277	    -43.10561846	    -39.28559686	     31.57208185	     89.99559364	      0.00000000	      0.00000000	    -30.05905378	    -44.74335693	    -33.61009606	     29.56141783	     89.99559364	      0.00000000	      0.00000000
      0.10000000	     86.35544388	      3.48600586	     -0.47725681	     -0.82643743	      0.27440178	     -0.26734682	      8.67224700	    -33.79588857	    -39.68357048	     37.70717896	      0.65811442	    -35.81267452	    -19.80976110	      0.00000000	     11.39486708	    -30.80387550	    -39.24376404	     46.45797515	      0.81084463	    -37.94539072	    -19.51213159	      0.00000000	     -1.21912687	     -0.53130443	      0.49271362	     -2.26404052	     -0.70663489	      0.52350822	     -2.00290354	     -1.29181360	      0.52350822	     -1.39334010	     -1.29181360	      0.43112442	     -1.13208122	     -1.08343600	      0.40032982	     -0.69660910	     -0.82299056	      0.36953522	     -8.70810135	     -6.01022199	      2.74032534	      0.00000000	      0.00000000	    -12.66238113	      8.78653290	     -0.86686944	    -30.82554910	    -43.10382046	    -39.30725403	     31.55475273	     89.99559364	      0.00000000	      0.00000000	    -30.12325729	    -44.78232190	    -33.64004880	     29.51220057	     89.99559364	      0.00000000	      0.00000000
      0.13333333	     86.36407859	      3.48088888	     -0.40487197	     -0.82639751	      0.27450810	     -0.26735037	      8.62408657	    -33.78826601	    -39.68463411	     37.74899745	      0.65884429	    -35.82113077	    -19.80830453	      0.00000000	     11.39366103	    -30.82074241	    -39.27540875	     46.43583336	      0.81045818	    -37.97071961	    -19.52921525	      0.00000000	     -1.22254024	     -0.53028842	      0.48149389	     -2.27037949	     -0.70528360	      0.51158726	     -2.00851137	     -1.28934328	      0.51158726	     -1.39724124	     -1.28934328	      0.42130715	     -1.13525087	     -1.08136416	      0.39121378	     -0.69855950	     -0.82141677	      0.36112042	     -8.73248270	     -5.99872872	      2.67792456	      0.00000000	      0.00000000	    -12.66776342	      8.76358547	     -0.84863071	    -30.85373337	    -43.09366065	    -39.36017690	     31.52443641	     89.99559364	      0.00000000	      0.00000000	    -30.23370269	    -44.83097129	    -33.69416911	     29.42533509	     89.99559364	      0.00000000	      0.00000000
      0.16666667	     86.36167106	      3.47666627	     -0.33195437	     -0.82637155	      0.27458317	     -0.26741654	      8.59248035	    -33.79090543	    -39.68259773	     37.79094328	      0.65957639	    -35.81792793	    -19.80858607	      0.00000000	     11.40657619	    -30.82252568	    -39.28517771	     46.40594061	      0.80993646	    -37.99488029	    -19.53813503	      0.00000000	     -1.22428854	     -0.52859032	      0.46880673	     -2.27362626	     -0.70302513	      0.49810715	     -2.01138365	     -1.28521451	      0.49810715	     -1.39923938	     -1.28521451	      0.41020589	     -1.13687434	     -1.07790139	      0.38090547	     -0.69955847	     -0.81878641	      0.35160505	     -8.74497064	     -5.97951945	      2.60736237	      0.00000000	      0.00000000	    -12.68436282	      8.73912946	     -0.82723036	    -30.84469322	    -43.08339407	    -39.43572631	     31.48812972	     89.99559364	      0.00000000	      0.00000000	    -30.33669189	    -44.86564665	    -33.75299190	     29.34347355	     89.99559364	      0.00000000	      0.00000000
